<?xml version="1.0" encoding="utf-8"?>
<!-- Generator: Adobe Illustrator 27.2.0, SVG Export Plug-In . SVG Version: 6.00 Build 0)  -->
<svg version="1.1" id="Layer_1" xmlns="http://www.w3.org/2000/svg" xmlns:xlink="http://www.w3.org/1999/xlink" x="0px" y="0px"
	 viewBox="0 0 220 220" style="enable-background:new 0 0 220 220;" xml:space="preserve">
<style type="text/css">
	.st0{fill:#C1C1C1;}
	.st1{fill:#FFFFFF;}
</style>
<g>
	<g>
		<path class="st0" d="M128.5,198.2l21.3-29.7c8.6-12,13.6-26.2,13.8-40.9c0.2-11.2-2.2-24.1-10.3-37
			c-21.5-34.3-15.4-24.2-15.4-24.2l-27,37.7l2.2,3.5c3.7,5.6,6,12,6.4,18.7c0.4,7.8-1.4,18-9.2,28.8l-6.7,9.4L128.5,198.2"/>
		<path class="st1" d="M123.4,205.3l-32-43c0,0-18-20.1,4.7-51.8C114.7,84.6,167.5,11,167.5,11l-59.2-0.1L53.1,87.8
			c0,0-38,47.1-4.2,89.4C48.9,177.2,78.5,220,123.4,205.3z"/>
	</g>
</g>
</svg>
