<?xml version="1.0" encoding="utf-8"?>
<!-- Generator: Adobe Illustrator 27.3.1, SVG Export Plug-In . SVG Version: 6.00 Build 0)  -->
<svg version="1.1" id="Layer_1" xmlns="http://www.w3.org/2000/svg" xmlns:xlink="http://www.w3.org/1999/xlink" x="0px" y="0px"
	 viewBox="0 0 220 220" style="enable-background:new 0 0 220 220;" xml:space="preserve">
<g>
	<g>
		<path d="M140.8,208.7l26.3-33.1c10.6-13.4,16.8-29.2,17.1-45.6c0.2-12.5-2.7-26.8-12.7-41.2c-26.6-38.2-19-27-19-27l-33.4,42
			l2.7,3.9c4.6,6.2,7.4,13.4,7.9,20.8c0.5,8.7-1.7,20.1-11.4,32.1l-8.3,10.5L140.8,208.7"/>
		<path d="M134.5,216.6l-39.6-47.9c0,0-22.3-22.4,5.8-57.7C123.7,82.1,189,0.1,189,0.1L115.8,0L47.5,85.7c0,0-47,52.5-5.2,99.6
			C42.3,185.3,78.9,233,134.5,216.6z"/>
	</g>
</g>
</svg>
