<?xml version="1.0" encoding="utf-8"?>
<!-- Generator: Adobe Illustrator 27.7.0, SVG Export Plug-In . SVG Version: 6.00 Build 0)  -->
<svg version="1.1" id="Layer_1" xmlns="http://www.w3.org/2000/svg" xmlns:xlink="http://www.w3.org/1999/xlink" x="0px" y="0px"
	 viewBox="0 0 412.9 113.4" style="enable-background:new 0 0 412.9 113.4;" xml:space="preserve">
<style type="text/css">
	.st0{fill-rule:evenodd;clip-rule:evenodd;}
</style>
<g>
	<path d="M127.2,50.4c-2.3-2.9-6-4.9-12-4.9c-8.4,0-16.5,5.3-19.2,16.2C93,51.9,84.2,45.5,72.1,45.5c-11.5,0-20,5.7-23.4,14.6
		c-2.5-8.7-8.8-14.6-18-14.6c-7,0-11.3,3.2-13.6,7.9h-0.4c0-0.9-0.8-5.2-2-7.8L0,46.1v66.7h17.8V88.3c2.3,2.9,6,4.9,12,4.9
		c8.5,0,16.1-4.9,18.9-14.7c3.4,8.9,11.9,14.7,23.3,14.7c12,0,20.7-6.4,23.8-16c2.2,9.4,8.7,16,18.4,16c7,0,11.4-3.2,13.7-7.9h0.3
		c0,0.9,0.8,5.2,1.6,7.8l15.1-0.5V23h-17.8V50.4z M25.1,78.3c-4,0-7.3-3.4-7.3-6.9v-4.2c0-4.1,3.7-6.8,7.3-6.8c4.1,0,6.9,3.4,6.9,9
		C32,74.9,29.2,78.3,25.1,78.3z M72.1,78.8c-4.5,0-7-3.9-7-9.6c0-5.7,2.5-9.4,7-9.4s7,3.7,7,9.4C79.1,75,76.6,78.8,72.1,78.8z
		 M127.2,71.5c0,4.1-3.7,6.8-7.3,6.8c-4.1,0-6.9-3.4-6.9-8.5c0-6,2.8-9.5,6.9-9.5c4,0,7.3,3.4,7.3,6.9V71.5z"/>
	<path d="M164.5,59.5c0-1.9,1.6-3.4,4.9-3.4c3.5,0,4.9,2,4.9,4.6c0,0.7-0.1,1.2-0.1,1.2l15.3-0.8c0,0,0.4-1.2,0.4-3.1
		c0-7.4-8.3-12.6-19.8-12.6c-13,0-21.5,5.3-21.5,15.6c0,16.8,24.2,13.6,24.2,19.2c0,1.2-1.4,1.7-4.1,1.7c-7,0-14.9-5.7-14.9-5.7
		l-7.3,10.2c0,0,6.7,6.9,23.2,6.9c14,0,21.3-6.2,21.3-14.6C191,60.6,164.5,67.4,164.5,59.5z"/>
	<path d="M314.5,75.8c-1.8,1.6-4.7,4.5-11,4.5c-6,0-9.2-3.2-10.5-7.3H321c0,0,0.5-2.2,0.5-5.4c0-13-8.1-22.1-21.7-22.1
		c-14.7,0-24.4,9.9-24.4,23.9c0,1.9,0.2,3.8,0.5,5.6v0c0,0-4.4,3.3-8.5,3.3c-4.2,0-6.4-1.9-6.4-7v-12h14.9V46.1H261V33.1l-16.8,0.5
		v12.4h-4.1h-3.8h-14l-5.9,23.2c-0.7,2.6-0.9,4.2-1.4,7.1h-0.4c-0.4-2.9-0.7-4.5-1.4-7.1l-6.6-23.2h-18.8l18.9,49.4l-0.2,0.3
		c-1.6,2.8-4,3.9-7.7,3.9c-3.3,0-6.1-1.5-6.1-1.5l-2.4,13c0,0,3.9,2.2,10.1,2.2c11.6,0,18.5-7.2,21.9-16.4l13.2-37.8h7.7V72
		c0,14.4,7.8,21.2,20.1,21.2c10.2,0,19.7-5.9,19.7-5.9l0,0c4.4,3.7,10.5,5.9,18.2,5.9c11.8,0,18.6-5,20.6-7.8L314.5,75.8z
		 M299.7,58.4c4,0,6,3.4,6.2,6.9h-13.4C293.3,60.2,296.4,58.4,299.7,58.4z"/>
</g>
<g>
	<circle class="st0" cx="345.1" cy="68.2" r="15.6"/>
	<path class="st0" d="M408.2,55.9l4.7-1.7c-0.6-2.5-1.3-4.8-2.2-7l-4.5,2C407.4,51.3,408.2,55.9,408.2,55.9z"/>
	<path class="st0" d="M399.5,51l4.6-1.8c-0.4-2.1-1.8-5.4-1.8-5.4l5.1-2.9l-2.1-4.3c0,0,0,0,0,0c-0.1-0.2-0.3-0.5-0.4-0.7l-0.1-0.3
		l0,0C393.3,14.4,370.8,0,345,0c0,0-6.9,0-7.9,0c-4.3,0-7.9,3.5-7.9,7.9s3.5,7.9,7.9,7.9c0.9,0,7.9,0,7.9,0
		c17.1,0,32.3,8.2,41.9,20.9c0.1,0,0.1,0,0.2,0c2.3,2.6,4.1,6.6,5.7,10.1l4.5-2.2C398.3,46.5,399.5,51,399.5,51z"/>
	<path class="st0" d="M401.2,52.5l-4.4,1.6c0.6,1.9,1,3.8,1.4,6l4.5-1.3C402.4,55.7,401.2,52.5,401.2,52.5z"/>
	<path class="st0" d="M409.9,68.1c0,0.9,0,1.9-0.1,2.9l2.7-0.5c0,0,0.2-1.8,0.1-2.9L409.9,68.1z"/>
	<path class="st0" d="M407,82c1.5-0.8,2.9-1.7,4.3-2.7l0.2-3.4l-3.8,0.8C407.6,77.8,407.2,80.4,407,82z"/>
	<path class="st0" d="M398.8,76.1L398.8,76.1l4.4-1.1c0,0,0.3-3.7,0.5-5.4l-4.7,0.8C399,72.2,398.9,74.1,398.8,76.1z"/>
	<path class="st0" d="M408.3,59l-4.5,1.4c0.3,1.4,0.6,6.8,0.6,6.8l4.1-1.2C409.1,62,408.3,59,408.3,59z"/>
	<path class="st0" d="M380.5,46.4c-1.2-1.8-2.5-3.4-4-5.1l-3.2,4.9c0,0,2,2.1,3.4,4.8L380.5,46.4z"/>
	<path class="st0" d="M362.9,30.2c-1.6-0.7-3.2-1.4-4.8-1.9c-0.1,0-0.1,0-0.2-0.1l0,0c-4.1-1.3-8.4-2.1-13-2.1c0,0-6.9,0-7.9,0
		c-4.3,0-7.9,3.5-7.9,7.9s3.5,7.9,7.9,7.9c0.9,0,7.9,0,7.9,0c4.7,0,9.2,1.3,13,3.4l5.9-6.9c0,0,4.4,2.5,6.9,4.9l3.5-5.6
		C370.7,34.2,367,32,362.9,30.2z"/>
	<path class="st0" d="M366,44.3l-2.6,4.1l0,0c1.5,1.2,2.9,2.5,4.3,3.9l2.7-4C368.6,45.7,366,44.3,366,44.3z"/>
	<path class="st0" d="M384.3,81.6l2.1,0c0.5-1.8,0.9-3.7,1.2-5.6l-3.9,0.4C383.7,76.5,384,78.6,384.3,81.6z"/>
	<path class="st0" d="M375.8,53.5l-4,4.2c1.2,1.8,2.4,3.8,3.5,5.9l3.4-3.2C378,58,376.8,55.4,375.8,53.5z"/>
	<path class="st0" d="M386.7,58.7l-5.2,2.2c0.2,1.2,0.6,3.1,0.7,5.2l4.7-1.1C387,62.9,386.9,60.8,386.7,58.7z"/>
	<path class="st0" d="M376.5,69.6c0,0,0.4,2.2,0.1,4.5l4.4-1.3c0-1.6-0.1-3.3-0.3-5L376.5,69.6z"/>
</g>
</svg>
