<?xml version="1.0" encoding="utf-8"?>
<!-- Generator: Adobe Illustrator 27.4.1, SVG Export Plug-In . SVG Version: 6.00 Build 0)  -->
<svg version="1.1" id="Layer_1" xmlns="http://www.w3.org/2000/svg" xmlns:xlink="http://www.w3.org/1999/xlink" x="0px" y="0px"
	 viewBox="0 0 123.5 111" style="enable-background:new 0 0 123.5 111;" xml:space="preserve">
<path d="M122.3,50.8L92.6,4.7C90.7,1.8,87.3,0,83.5,0H48.2c-5.8,0-10.5,4.2-10.5,9.4v3.1H24.6l-24.8,43l24.8,43h13.2v3.1
	c0,5.2,4.7,9.4,10.5,9.4h35.3c3.7,0,7.2-1.8,9.1-4.7l29.8-46.1C124.2,57.3,124.2,53.7,122.3,50.8z M69.1,21.4l19.7,34.1L69.1,89.6
	H29.8L10.1,55.5l19.7-34.1H69.1z"/>
</svg>
