<?xml version="1.0" encoding="utf-8"?>
<!-- Generator: Adobe Illustrator 27.5.0, SVG Export Plug-In . SVG Version: 6.00 Build 0)  -->
<svg version="1.1" id="Layer_1" xmlns="http://www.w3.org/2000/svg" xmlns:xlink="http://www.w3.org/1999/xlink" x="0px" y="0px"
	 viewBox="0 0 123.5 111" style="enable-background:new 0 0 123.5 111;" xml:space="preserve">
<style type="text/css">
	.st0{fill:#FFFFFF;}
</style>
<g id="_x38_K9Vcx_00000137093755832307087180000001469200030546850458_">
	<g>
		<path d="M113.6,74c0.1,0.3,0.2,0.6,0.3,0.9c1,3.5-0.1,5.2-3.5,6.4c-3,1-6,2.3-8.9,3.4c-4,1.5-8.1,3-12.1,4.5
			c-3.5,1.3-7,2.7-10.6,4.1c-3.1,1.2-6.2,2.2-9.4,3.4c-3,1.1-5.9,2.2-8.9,3.3c-3.9,1.4-7.8,2.9-11.7,4.3c-2.2,0.8-4.4,1.7-6.6,2.5
			c-2.5,1-4.6,0-5.5-2.5c-1.8-4.7-3.7-9.4-5.5-14.2c-1.8-4.6-3.4-9.3-5.2-13.9c-1.8-4.9-3.7-9.7-5.5-14.5c-2-5.4-4.1-10.8-6.1-16.2
			c-1.2-3.1-2.4-6.1-3.5-9.2c-0.4-1.1-0.7-2.3-0.7-3.5c-0.1-2.3,1.8-3,3.5-3.7c3-1.1,6.1-2.2,9.1-3.3c4.2-1.5,8.4-3,12.6-4.6
			c4.3-1.6,8.5-3.2,12.8-4.8c5.1-1.9,10.1-3.7,15.2-5.6c6-2.3,12-4.6,18.1-6.8c0.9-0.3,1.9-0.7,2.9-0.6c1.3,0.1,2.4,0.8,2.9,2.1
			 M84,17c-0.2,0-0.3,0.1-0.5,0.1c-0.2,0.6-0.4,1.2-0.7,1.8c-1.9,4.2-3.9,8.4-5.8,12.7c-2.3,5-4.5,10-6.7,15
			c-2.7,5.9-5.3,11.7-8,17.6c-1.2,2.6-2.3,5.2-3.5,7.7c-1,2-0.9,2.3,1.3,2.4c0.3,0,0.6,0,0.9,0c1.9-0.1,3.9-0.3,5.8-0.3
			c5.4,0,10.8,0,16.2,0c6.1,0,12.2-0.2,18.3-0.2c1,0,1.9,0.1,2.9,0c0.4,0,0.9-0.4,1.2-0.7c0.1-0.1-0.2-0.7-0.4-1
			c-0.2-0.5-0.5-0.9-0.7-1.4c-0.5-1.4-1-2.8-1.5-4.2c-1.4-3.6-2.8-7.3-4.2-10.9c-2.1-5.7-4.2-11.4-6.4-17
			c-2.2-5.9-4.4-11.7-6.7-17.6C84.9,19.5,84.5,18.3,84,17z M20.5,34.6c-0.1,0.2-0.2,0.4-0.2,0.5C30.5,47,40.7,58.8,51.2,71
			c0.3-1,0.5-1.7,0.8-2.3c2.5-5.4,5-10.9,7.5-16.3c1.9-4.2,3.9-8.5,5.8-12.7C67.1,35.4,69,31.2,71,27c1.8-3.9,3.7-7.8,5.5-11.7
			c0.2-0.4,0.1-0.9,0.1-1.3c-0.5,0.1-1,0-1.4,0.2c-1.4,0.6-2.8,1.2-4.2,1.8c-3.1,1.2-6.2,2.3-9.3,3.5c-3,1.1-6.1,2.2-9.1,3.4
			c-2.7,1-5.4,1.9-8.1,2.9c-3.9,1.5-7.7,3-11.6,4.5c-3.1,1.2-6.3,2.3-9.4,3.5C22.5,34,21.5,34.3,20.5,34.6z M40.8,93.6
			c1-2.2,1.8-4.1,2.6-6c1.2-2.7,2.4-5.4,3.7-8c0.4-0.8,0.4-1.2-0.2-1.8c-1.7-1.9-3.5-3.8-5.1-5.8c-5.3-6.3-10.6-12.6-15.9-19
			c-0.3-0.3-0.6-0.6-0.9-0.9c-0.1,0.1-0.2,0.2-0.4,0.2c0.3,0.8,0.7,1.6,1,2.4c2.7,7.1,5.5,14.2,8.2,21.3c1,2.7,1.9,5.4,2.9,8.1
			c1,2.6,2,5.3,3,7.9C40,92.6,40.4,93,40.8,93.6z"/>
		<path class="st0" d="M84,17c0.5,1.2,0.9,2.5,1.4,3.7c2.2,5.9,4.5,11.7,6.7,17.6c2.1,5.7,4.2,11.4,6.4,17c1.4,3.6,2.8,7.3,4.2,10.9
			c0.5,1.4,1,2.8,1.5,4.2c0.2,0.5,0.5,0.9,0.7,1.4c0.2,0.3,0.5,0.9,0.4,1c-0.3,0.3-0.8,0.7-1.2,0.7c-0.9,0.1-1.9,0-2.9,0
			c-6.1,0.1-12.2,0.2-18.3,0.2c-5.4,0-10.8,0-16.2,0c-1.9,0-3.9,0.2-5.8,0.3c-0.3,0-0.6,0.1-0.9,0c-2.2-0.1-2.3-0.4-1.3-2.4
			c1.3-2.5,2.4-5.1,3.5-7.7c2.7-5.9,5.4-11.7,8-17.6c2.3-5,4.5-10,6.7-15c1.9-4.2,3.9-8.4,5.8-12.7c0.3-0.6,0.5-1.2,0.7-1.8
			C83.7,17.1,83.9,17.1,84,17z"/>
		<path class="st0" d="M20.5,34.6c1-0.3,1.9-0.6,2.9-1c3.2-1.1,6.3-2.3,9.4-3.5c3.9-1.5,7.7-3,11.6-4.5c2.7-1,5.4-1.9,8.1-2.9
			c3-1.1,6.1-2.2,9.1-3.4c3.1-1.1,6.2-2.3,9.3-3.5c1.4-0.5,2.8-1.2,4.2-1.8c0.4-0.2,0.9-0.1,1.4-0.2c0,0.4,0.1,0.9-0.1,1.3
			C74.6,19.1,72.8,23,71,27c-1.9,4.2-3.8,8.5-5.7,12.7c-1.9,4.2-3.9,8.5-5.8,12.7c-2.5,5.4-5,10.9-7.5,16.3
			c-0.3,0.6-0.4,1.3-0.8,2.3C40.7,58.8,30.5,47,20.3,35.1C20.4,34.9,20.4,34.7,20.5,34.6z"/>
		<path class="st0" d="M40.8,93.6c-0.4-0.7-0.8-1-1-1.5c-1-2.6-2-5.3-3-7.9c-1-2.7-1.9-5.4-2.9-8.1c-2.7-7.1-5.4-14.2-8.2-21.3
			c-0.3-0.8-0.7-1.6-1-2.4c0.1-0.1,0.2-0.2,0.4-0.2c0.3,0.3,0.6,0.6,0.9,0.9c5.3,6.3,10.6,12.7,15.9,19c1.7,2,3.4,3.9,5.1,5.8
			c0.6,0.6,0.6,1,0.2,1.8c-1.4,2.6-2.5,5.3-3.7,8C42.6,89.5,41.8,91.4,40.8,93.6z"/>
	</g>
</g>
</svg>
