<?xml version="1.0" encoding="utf-8"?>
<!-- Generator: Adobe Illustrator 27.7.0, SVG Export Plug-In . SVG Version: 6.00 Build 0)  -->
<svg version="1.1" id="Layer_1" xmlns="http://www.w3.org/2000/svg" xmlns:xlink="http://www.w3.org/1999/xlink" x="0px" y="0px"
	 viewBox="0 0 123.5 111" style="enable-background:new 0 0 123.5 111;" xml:space="preserve">
<style type="text/css">
	.st0{fill:#D23756;}
</style>
<g>
	<path d="M96.8,59c-3.9,0-7.1-3.1-7.4-6.9h-0.8c-0.3,3.9-3.5,6.9-7.4,6.9s-7.1-3.1-7.4-6.9h-2c-1.9,4.1-6.1,6.9-10.9,6.9
		c-6.7,0-12.1-5.4-12.1-12.1c0-5.2,3.2-9.6,7.8-11.3V34h-0.4c-4.1,0-7.4-3.3-7.4-7.4s3.3-7.4,7.4-7.4h0.3l0-0.8h-0.3
		c-4.1,0-7.4-3.3-7.4-7.4c0-2.1,0.9-4,2.3-5.3H28.9v100.7h36.3v-24c20.1-0.4,33-7.8,37-25.7C100.9,58.1,98.9,59,96.8,59z"/>
	<path class="st0" d="M70.3,46.9c0,5.2-4.2,9.4-9.4,9.4c-5.2,0-9.4-4.2-9.4-9.4c0-5.2,4.2-9.4,9.4-9.4
		C66.1,37.5,70.3,41.7,70.3,46.9z M61,21.9c0,0-4.1,0-4.7,0c-2.6,0-4.7,2.1-4.7,4.7s2.1,4.7,4.7,4.7c0.6,0,4.7,0,4.7,0
		c8.6,0,15.6,7,15.6,15.6c0,0,0,4.1,0,4.7c0,2.6,2.1,4.7,4.7,4.7c2.6,0,4.7-2.1,4.7-4.7c0-0.6,0-4.7,0-4.7
		C86,33.1,74.8,21.9,61,21.9z M61,6.3c0,0-4.1,0-4.7,0c-2.6,0-4.7,2.1-4.7,4.7s2.1,4.7,4.7,4.7c0.6,0,4.7,0,4.7,0
		c17.3,0,31.3,14,31.3,31.3c0,0,0,4.1,0,4.7c0,2.6,2.1,4.7,4.7,4.7c2.6,0,4.7-2.1,4.7-4.7c0-0.6,0-4.7,0-4.7
		C101.6,24.4,83.4,6.3,61,6.3z"/>
</g>
</svg>
