<?xml version="1.0" encoding="utf-8"?>
<!-- Generator: Adobe Illustrator 27.7.0, SVG Export Plug-In . SVG Version: 6.00 Build 0)  -->
<svg version="1.1" id="Layer_1" xmlns="http://www.w3.org/2000/svg" xmlns:xlink="http://www.w3.org/1999/xlink" x="0px" y="0px"
	 viewBox="0 0 123.5 111" style="enable-background:new 0 0 123.5 111;" xml:space="preserve">
<style type="text/css">
	.st0{fill-rule:evenodd;clip-rule:evenodd;fill:#231F20;}
</style>
<g>
	<circle class="st0" cx="31.3" cy="86.4" r="18.2"/>
	<path class="st0" d="M105.1,72l5.5-2c-0.7-2.9-1.5-5.6-2.6-8.2l-5.3,2.3C104.2,66.6,105.1,72,105.1,72z"/>
	<path class="st0" d="M95,66.3l5.3-2.1c-0.4-2.4-2.1-6.3-2.1-6.3l6-3.4l-2.4-5c0,0,0,0,0,0c-0.1-0.3-0.3-0.5-0.4-0.8l-0.2-0.3l0,0
		C87.7,23.6,61.4,6.8,31.2,6.8c0,0-8.1,0-9.2,0c-5.1,0-9.2,4.1-9.2,9.2s4.1,9.2,9.2,9.2c1.1,0,9.2,0,9.2,0c20,0,37.7,9.6,48.9,24.4
		c0.1,0,0.1,0,0.2,0c2.7,3,4.8,7.7,6.7,11.8l5.2-2.5C93.5,61,95,66.3,95,66.3z"/>
	<path class="st0" d="M96.9,68.1L91.8,70c0.6,2.2,1.2,4.5,1.6,7l5.2-1.5C98.4,71.9,96.9,68.1,96.9,68.1z"/>
	<path class="st0" d="M107.1,86.3c0,1,0,2.2-0.2,3.4l3.2-0.6c0,0,0.2-2.1,0.1-3.4L107.1,86.3z"/>
	<path class="st0" d="M103.7,102.5c1.8-0.9,3.4-2,5-3.1l0.2-4l-4.4,1C104.4,97.6,104,100.7,103.7,102.5z"/>
	<path class="st0" d="M94.1,95.7L94.1,95.7l5.2-1.3c0,0,0.4-4.3,0.6-6.3L94.3,89C94.3,91.1,94.3,93.4,94.1,95.7z"/>
	<path class="st0" d="M105.2,75.7l-5.3,1.6c0.4,1.7,0.7,7.9,0.7,7.9l4.8-1.4C106.2,79.2,105.2,75.7,105.2,75.7z"/>
	<path class="st0" d="M72.8,60.9c-1.4-2-3-4-4.7-5.9l-3.7,5.7c0,0,2.4,2.4,4,5.6L72.8,60.9z"/>
	<path class="st0" d="M52.2,42.1c-1.8-0.9-3.7-1.6-5.6-2.3c-0.1,0-0.1-0.1-0.2-0.1l0,0c-4.8-1.6-9.9-2.4-15.2-2.4c0,0-8.1,0-9.2,0
		c-5.1,0-9.2,4.1-9.2,9.2s4.1,9.2,9.2,9.2c1.1,0,9.2,0,9.2,0c5.5,0,10.7,1.5,15.2,4l6.9-8.1c0,0,5.1,2.9,8.1,5.7l4.1-6.5
		C61.3,46.7,57,44.2,52.2,42.1z"/>
	<path class="st0" d="M55.8,58.5l-3.1,4.8l0,0c1.7,1.4,3.4,2.9,5.1,4.5l3.2-4.7C58.9,60.2,55.8,58.5,55.8,58.5z"/>
	<path class="st0" d="M77.1,102.1l2.5,0c0.6-2.1,1.1-4.3,1.4-6.5l-4.5,0.5C76.5,96.1,76.9,98.6,77.1,102.1z"/>
	<path class="st0" d="M67.2,69.2l-4.7,4.9c1.4,2.2,2.8,4.4,4.1,6.9l3.9-3.7C69.9,74.5,68.4,71.4,67.2,69.2z"/>
	<path class="st0" d="M80,75.3l-6.1,2.6c0.3,1.4,0.7,3.7,0.9,6l5.5-1.3C80.3,80.2,80.2,77.8,80,75.3z"/>
	<path class="st0" d="M68.1,88.1c0,0,0.5,2.6,0.1,5.3l5.2-1.5c0-1.9-0.1-3.9-0.4-5.8L68.1,88.1z"/>
</g>
</svg>
