<?xml version="1.0" encoding="utf-8"?>
<!-- Generator: Adobe Illustrator 27.4.1, SVG Export Plug-In . SVG Version: 6.00 Build 0)  -->
<svg version="1.1" id="Layer_1" xmlns="http://www.w3.org/2000/svg" xmlns:xlink="http://www.w3.org/1999/xlink" x="0px" y="0px"
	 viewBox="0 0 320.3 316.3" style="enable-background:new 0 0 320.3 316.3;" xml:space="preserve">
<path d="M160.1,65.3C103,65.3,45.9,80,45.9,108.2v100c0,28.1,57.1,42.8,114.2,42.8s114.2-14.7,114.2-42.8v-100
	C274.4,80,217.3,65.3,160.1,65.3z M160.1,79.6c61.1,0,100,16.9,100,28.6s-38.9,28.6-100,28.6s-100-16.9-100-28.6
	S99.1,79.6,160.1,79.6z M160.1,236.7c-61.1,0-100-16.9-100-28.6V180c20.6,13.9,60.4,21,100,21s79.4-7.1,100-21v28.1
	C260.1,219.8,221.2,236.7,160.1,236.7z M160.1,186.7c-61.1,0-100-16.9-100-28.6V130c20.6,13.9,60.4,21,100,21s79.4-7.1,100-21v28.1
	C260.1,169.8,221.2,186.7,160.1,186.7z"/>
</svg>
