<?xml version="1.0" encoding="utf-8"?>
<!-- Generator: Adobe Illustrator 27.4.1, SVG Export Plug-In . SVG Version: 6.00 Build 0)  -->
<svg version="1.1" id="Layer_1" xmlns="http://www.w3.org/2000/svg" xmlns:xlink="http://www.w3.org/1999/xlink" x="0px" y="0px"
	 viewBox="0 0 320.3 316.3" style="enable-background:new 0 0 320.3 316.3;" xml:space="preserve">
<path d="M171.6,65.5v41.1h68.9c12.6,0,22.9,10.3,22.9,22.9v137.8c0,12.6-10.2,22.9-22.9,22.9H79.8c-12.6,0-22.9-10.3-22.9-22.9
	V129.5c0-12.6,10.2-22.9,22.9-22.9h68.9V65.5l-13,13c-4.4,4.4-11.6,4.4-16.2-0.1c-4.5-4.5-4.5-11.8-0.1-16.1l32.6-32.6
	c2.2-2.2,5.1-3.3,8-3.3l0.1,0c2.9,0,5.8,1.1,8,3.3l32.6,32.6c4.4,4.4,4.4,11.6-0.1,16.1c-4.5,4.5-11.8,4.5-16.1,0.1L171.6,65.5z
	 M148.7,129.5H79.8v137.7h160.6V129.5h-68.8v45.9c0,6.3-5.1,11.5-11.5,11.5c-6.3,0-11.5-5.1-11.5-11.5L148.7,129.5z M114.3,106.6
	v22.9H206v-22.9H114.3z M148.7,106.6h22.9v22.9h-22.9V106.6z"/>
</svg>
