<?xml version="1.0" encoding="utf-8"?>
<!-- Generator: Adobe Illustrator 27.5.0, SVG Export Plug-In . SVG Version: 6.00 Build 0)  -->
<svg version="1.1" id="Layer_1" xmlns="http://www.w3.org/2000/svg" xmlns:xlink="http://www.w3.org/1999/xlink" x="0px" y="0px"
	 viewBox="0 0 320.3 316.3" style="enable-background:new 0 0 320.3 316.3;" xml:space="preserve">
<path d="M70.8,152.4h83.4V69c0-3.1,2.6-5.7,5.7-5.7c3.1,0,5.7,2.6,5.7,5.7v83.4H249c3.2-0.2,5.8,2.3,6,5.4c0.2,3.2-2.3,5.8-5.4,6
	c-0.2,0-0.4,0-0.6,0h-83.4v83.4c0,3.1-2.6,5.7-5.7,5.7c-3.1,0-5.7-2.6-5.7-5.7v-83.4H70.8c-3.2-0.2-5.6-2.8-5.4-6
	C65.5,154.9,67.8,152.6,70.8,152.4z"/>
</svg>
