<?xml version="1.0" encoding="utf-8"?>
<!-- Generator: Adobe Illustrator 27.7.0, SVG Export Plug-In . SVG Version: 6.00 Build 0)  -->
<svg version="1.1" id="Layer_1" xmlns="http://www.w3.org/2000/svg" xmlns:xlink="http://www.w3.org/1999/xlink" x="0px" y="0px"
	 viewBox="0 0 320.3 316.3" style="enable-background:new 0 0 320.3 316.3;" xml:space="preserve">
<g>
	<path d="M257.3,45.1H63c-22.4,0-40.6,18.2-40.6,40.6v145c0,22.4,18.2,40.6,40.6,40.6h194.2c22.4,0,40.6-18.2,40.6-40.6v-145
		C297.9,63.3,279.7,45.1,257.3,45.1z M63,68.3h194.2c9.6,0,17.4,7.8,17.4,17.4v23.2h-229V85.7C45.6,76.1,53.4,68.3,63,68.3z
		 M257.3,248H63c-9.6,0-17.4-7.8-17.4-17.4v-98.6h229v98.6C274.7,240.2,266.9,248,257.3,248z"/>
	<circle cx="106.5" cy="88.6" r="14.5"/>
	<circle cx="144.2" cy="88.6" r="14.5"/>
	<circle cx="68.8" cy="88.6" r="14.5"/>
</g>
</svg>
