<?xml version="1.0" encoding="utf-8"?>
<!-- Generator: Adobe Illustrator 27.4.1, SVG Export Plug-In . SVG Version: 6.00 Build 0)  -->
<svg version="1.1" id="Layer_1" xmlns="http://www.w3.org/2000/svg" xmlns:xlink="http://www.w3.org/1999/xlink" x="0px" y="0px"
	 viewBox="0 0 320.3 316.3" style="enable-background:new 0 0 320.3 316.3;" xml:space="preserve">
<style type="text/css">
	.st0{fill-rule:evenodd;clip-rule:evenodd;}
</style>
<path class="st0" d="M186.8,156.7c40.3,9.2,72.7,39,85.7,77.7c3.6,10.6,1.9,22.3-4.6,31.4c-6.5,9.1-17,14.5-28.2,14.5
	c-41.8,0.4-117,0.4-158.8,0.4c-11.3,0-22-5.5-28.5-14.7c-6.6-9.2-8.3-21.1-4.6-31.8c13.3-38.6,45.8-68.3,86-77.6
	c-21.8-10-37-32.1-37-57.7c0-35,28.5-63.5,63.5-63.5S223.8,64,223.8,99C223.8,124.6,208.7,146.7,186.8,156.7L186.8,156.7z
	 M255.9,240.1c-13.4-39.9-51.1-68.8-95.5-68.8c-44.4,0-82.2,28.9-95.9,68.7c-1.8,5.3-1,11.3,2.3,15.9c3.3,4.6,8.6,7.3,14.3,7.3
	c41.8,0,116.9,0,158.6-0.4h0.1c5.5,0,10.7-2.7,14-7.2C256.9,251.2,257.7,245.4,255.9,240.1C255.9,240.1,255.9,240.1,255.9,240.1
	L255.9,240.1z M160.3,53.1c-25.4,0-46,20.6-46,46s20.6,46,46,46s46-20.6,46-46S185.7,53.1,160.3,53.1z"/>
</svg>
