<?xml version="1.0" encoding="utf-8"?>
<!-- Generator: Adobe Illustrator 27.6.1, SVG Export Plug-In . SVG Version: 6.00 Build 0)  -->
<svg version="1.1" id="Layer_1" xmlns="http://www.w3.org/2000/svg" xmlns:xlink="http://www.w3.org/1999/xlink" x="0px" y="0px"
	 viewBox="0 0 320.3 316.3" style="enable-background:new 0 0 320.3 316.3;" xml:space="preserve">
<style type="text/css">
	.st0{fill-rule:evenodd;clip-rule:evenodd;}
</style>
<g>
	<path class="st0" d="M110,280.8c-15.7,0-28.5-12.7-28.5-28.5s12.7-28.5,28.5-28.5s28.5,12.7,28.5,28.5S125.7,280.8,110,280.8z
		 M110,261.9c5.2,0,9.5-4.2,9.5-9.5c0-5.2-4.2-9.5-9.5-9.5s-9.5,4.2-9.5,9.5C100.5,257.6,104.7,261.9,110,261.9z"/>
	<path class="st0" d="M223.8,280.8c-15.7,0-28.5-12.7-28.5-28.5s12.7-28.5,28.5-28.5s28.5,12.7,28.5,28.5S239.5,280.8,223.8,280.8z
		 M223.8,261.9c5.2,0,9.5-4.2,9.5-9.5c0-5.2-4.2-9.5-9.5-9.5s-9.5,4.2-9.5,9.5C214.3,257.6,218.5,261.9,223.8,261.9z"/>
	<path class="st0" d="M98.6,119.6l8.9,67.6c0.6,4.8,4.7,8.3,9.6,8.3l100.4,0c4.6,0.1,8.6-3.1,9.5-7.6l13.7-68.2H98.6z M96.1,100.6
		h156.1c6,0,10.5,5.5,9.3,11.3l-15.9,79.6c-2.7,13.5-14.7,23.2-28.3,22.9l-100.2,0c-14.4,0.1-26.6-10.5-28.4-24.7L74.3,80.4
		c-0.6-4.7-4.6-8.2-9.4-8.3H43.6c-5.2,0-9.5-4.2-9.5-9.5s4.2-9.5,9.5-9.5H65c14.3,0,26.3,10.6,28.2,24.7L96.1,100.6z"/>
</g>
</svg>
