<?xml version="1.0" encoding="utf-8"?>
<!-- Generator: Adobe Illustrator 27.7.0, SVG Export Plug-In . SVG Version: 6.00 Build 0)  -->
<svg version="1.1" id="Layer_1" xmlns="http://www.w3.org/2000/svg" xmlns:xlink="http://www.w3.org/1999/xlink" x="0px" y="0px"
	 viewBox="0 0 320.3 316.3" style="enable-background:new 0 0 320.3 316.3;" xml:space="preserve">
<g>
	<path d="M191.5,51.3c-7.1-2.7-14.8,1.7-17.1,9.7l-54.2,183.8c-2.3,8,1.9,15.7,8.6,19.4c6.9,3.8,14.5,1.6,17.1-9.7l54.2-183.8
		C202.4,62.7,198.6,54,191.5,51.3z"/>
	<path d="M289.4,144.8l-67.7-49.3c-6.3-4.6-14.7-2.5-18.7,4.6c-4.1,7.1-2.2,16.6,4.1,21.2l50.1,36.5L207,194.2
		c-6.3,4.6-7.5,13.7-4.1,21.2c3.5,7.6,10.8,8.8,18.7,4.6l67.7-49.4c3.9-2.8,6.2-7.7,6.2-12.8C295.5,152.5,293.2,147.7,289.4,144.8z"
		/>
	<path d="M113.3,194.2l-50.1-36.5l50.1-36.5c6.3-4.6,8.1-14,4.1-21.2c-4.1-7.1-12.4-9.2-18.7-4.6L31,144.8
		c-3.9,2.8-6.2,7.7-6.2,12.8s2.3,10.1,6.2,12.8l67.7,49.4c10.8,6.3,15.4,1.6,18.7-4.6C121.3,208.2,119.6,198.7,113.3,194.2z"/>
</g>
</svg>
