<?xml version="1.0" encoding="utf-8"?>
<!-- Generator: Adobe Illustrator 27.4.0, SVG Export Plug-In . SVG Version: 6.00 Build 0)  -->
<svg version="1.1" id="Layer_1" xmlns="http://www.w3.org/2000/svg" xmlns:xlink="http://www.w3.org/1999/xlink" x="0px" y="0px"
	 viewBox="0 0 320.3 316.3" style="enable-background:new 0 0 320.3 316.3;" xml:space="preserve">
<path d="M267.8,75.9c-5.5-13.1-16.5-23-30.1-27c-7.2-2.1-16.1-2.9-27.1-2.9H109.7c-11,0-19.9,0.7-27.1,2.9
	c-13.6,4.1-24.6,14-30.1,27C48.1,87.1,48,99.7,48,107.7v100.9c0,8,0.1,20.6,4.4,31.8c5.5,13.1,16.5,23,30.1,27
	c7.2,2.1,16.1,2.9,27.1,2.9h100.9c11,0,19.9-0.7,27.1-2.9c13.6-4.1,24.6-14,30.1-27c4.4-11.2,4.4-23.8,4.4-31.8V107.7
	C272.3,99.7,272.2,87.1,267.8,75.9z M179,198.3c-0.6,6.9-1.7,16-3.1,25.4c-1,6.6-1.9,10.2-2.6,12.8c-1.2,4.2-5.9,7.8-13.1,7.8
	c-7.2,0-11.9-3.6-13.1-7.8c-0.8-2.6-1.6-6.2-2.6-12.8c-1.5-9.3-2.6-18.5-3.1-25.4c-0.6-7.2-0.9-11.7-0.4-17c0.2-2.4,1.2-4.7,3-6.5
	c3.4-3.6,9.3-5.8,16.3-5.8c7,0,12.9,2.3,16.3,5.8c1.7,1.7,2.8,4,3,6.5C180,186.6,179.6,191.1,179,198.3z M131,180.9
	c0.7,0.7,1.1,1.6,1,2.6c-0.2,3-0.1,6,0.1,9c0,0.2,0,0.5-0.2,0.7c-0.3,0.5-1,0.6-1.4,0.3c-14.6-10-23.3-26.6-23.1-44.3
	c0.4-28,22.8-51,50.7-52.1c0.7,0,1.3,0,2,0c29.2,0,52.9,23.6,52.9,52.8c0,17.5-8.6,33.8-23.1,43.6c-0.2,0.1-0.4,0.2-0.6,0.2
	c-0.6,0-1-0.5-1-1.1c0.2-3.2,0.2-6.1,0.1-9c0-1,0.3-1.9,1-2.6c8.6-8.1,13.5-19.3,13.5-31.1c0-0.5,0-1.1,0-1.6
	c-0.9-23.6-20.8-42-44.4-41.1c-22.5,0.9-40.4,19.1-41,41.5C117.1,160.8,122.1,172.6,131,180.9z M178.5,143.3
	c0,10.1-8.2,18.4-18.4,18.4c-10.1,0-18.4-8.2-18.4-18.4c0-10.1,8.2-18.4,18.4-18.4C170.3,124.9,178.5,133.2,178.5,143.3z
	 M186.3,224.1c-0.2,0.1-0.3,0.1-0.5,0c-0.6-0.1-1-0.6-0.9-1.2c0.4-2.7,0.8-5.4,1.1-8.1c0.1-0.9,0.7-1.8,1.6-2.1
	c25.1-10.9,41.3-35.7,41.3-63c0-38.1-31.2-69.1-69.3-68.8c-37.3,0.3-67.8,30.7-68.2,68.1c-0.2,27.6,16,52.7,41.3,63.7
	c0.9,0.4,1.5,1.2,1.6,2.1c0.4,2.7,0.7,5.4,1.1,8.1c0,0.2,0,0.3-0.1,0.5c-0.2,0.6-0.8,0.8-1.4,0.7c-31-10.9-53.2-40.6-52.8-75.4
	C81.9,105.8,117,71,160,70.9c43.6-0.1,79.1,35.3,79.1,78.8C239,184.1,217,213.3,186.3,224.1z"/>
</svg>
