<?xml version="1.0" encoding="utf-8"?>
<!-- Generator: Adobe Illustrator 27.7.0, SVG Export Plug-In . SVG Version: 6.00 Build 0)  -->
<svg version="1.1" id="Layer_1" xmlns="http://www.w3.org/2000/svg" xmlns:xlink="http://www.w3.org/1999/xlink" x="0px" y="0px"
	 viewBox="0 0 320.3 316.3" style="enable-background:new 0 0 320.3 316.3;" xml:space="preserve">
<path d="M104.9,131l25.8-22.8c-0.3-3-0.5-6.1-0.5-9.1v-0.2L63.2,31.8c-0.5-0.5-1.1-0.9-1.7-1.2c-0.6-0.3-1.3-0.4-2-0.4
	c-0.7,0-1.4,0.1-2,0.4c-0.6,0.3-1.2,0.7-1.7,1.2L34.4,53c-0.5,0.5-0.9,1.1-1.2,1.7c-0.3,0.6-0.4,1.3-0.4,2c0,0.7,0.1,1.4,0.4,2
	c0.3,0.6,0.7,1.2,1.2,1.7L104.9,131z"/>
<path d="M246.2,183c-2.9,1-5.9,1.8-8.9,2.5l-1.2,0.2c-5,0.7-10.1,1.1-15.2,1.1c-3.7,0-7.4-0.2-11.1-0.6l-38.4,43.1l42.8,42.8
	c3.9,4,8.5,7.2,13.7,9.4c5.1,2.2,10.6,3.3,16.2,3.4h0.4c8.5-0.1,16.7-2.6,23.7-7.3c7-4.7,12.5-11.4,15.7-19.2
	c3.2-7.8,4.1-16.4,2.4-24.7c-1.6-8.3-5.7-15.9-11.6-21.9L246.2,183z"/>
<path d="M283.5,77.2c-0.3-0.8-0.8-1.6-1.5-2.1c-0.7-0.6-1.5-1-2.3-1.2c-0.9-0.2-1.8-0.2-2.6,0.1c-0.8,0.2-1.6,0.7-2.3,1.3
	l-30.4,30.3l-32.3-32.2l30.4-30.2c0.6-0.6,1.1-1.4,1.3-2.2c0.3-0.8,0.3-1.7,0.1-2.6c-0.2-0.9-0.5-1.7-1.1-2.3
	c-0.6-0.7-1.3-1.2-2.1-1.5c-8.7-3.8-18.2-5.1-27.6-3.8c-17.1,1.5-33,9.4-44.4,22.1c-11.5,12.7-17.7,29.4-17.3,46.5
	c-0.1,5.6,0.8,11.3,2.5,16.6L47.4,209.9c-8.5,7.6-13.7,18.3-14.4,29.8c-0.7,11.4,3.3,22.7,10.9,31.2l0.9,1
	c7.7,8,18.2,12.6,29.2,12.9c11.1,0.2,21.8-3.9,29.8-11.5c1.2-1.2,2.4-2.4,3.4-3.7l94.6-106.3c10.2,2.5,20.8,3,31.2,1.4
	c12.2-2.5,23.4-8.3,32.6-16.7c9.1-8.4,15.8-19.2,19.2-31.1C288.7,103.9,288.3,90,283.5,77.2z"/>
</svg>
