<?xml version="1.0" encoding="utf-8"?>
<!-- Generator: Adobe Illustrator 27.6.1, SVG Export Plug-In . SVG Version: 6.00 Build 0)  -->
<svg version="1.1" id="Layer_1" xmlns="http://www.w3.org/2000/svg" xmlns:xlink="http://www.w3.org/1999/xlink" x="0px" y="0px"
	 viewBox="0 0 320.3 316.3" style="enable-background:new 0 0 320.3 316.3;" xml:space="preserve">
<path d="M280.1,101c-2.9-10.6-11.1-18.9-21.7-21.8c-19.3-5.2-96.4-5.2-96.4-5.2s-77.2,0-96.4,5.2C54.9,82,46.5,90.3,43.6,101
	c-5.2,19.2-5.2,59.5-5.2,59.5s0,40.2,5.2,59.4c2.9,10.6,11.2,18.9,21.8,21.7c19.2,5.2,96.4,5.2,96.4,5.2s77.2,0,96.5-5.2
	c10.6-2.9,18.9-11.2,21.8-21.8c5.1-19.2,5.1-59.4,5.1-59.4S285.3,120.2,280.1,101z M137.1,197.4v-74l64.2,37.1L137.1,197.4z"/>
</svg>
