<?xml version="1.0" encoding="utf-8"?>
<!-- Generator: Adobe Illustrator 27.2.0, SVG Export Plug-In . SVG Version: 6.00 Build 0)  -->
<svg version="1.1" id="Layer_1" xmlns="http://www.w3.org/2000/svg" xmlns:xlink="http://www.w3.org/1999/xlink" x="0px" y="0px"
	 viewBox="0 0 320.3 316.3" style="enable-background:new 0 0 320.3 316.3;" xml:space="preserve">
<path d="M272.7,19.6H47.6c-6.9,0-13.5,2.7-18.4,7.6c-4.9,4.9-7.6,11.5-7.6,18.4v225.1c0,6.9,2.7,13.5,7.6,18.4
	c4.9,4.9,11.5,7.6,18.4,7.6h225.1c6.9,0,13.5-2.7,18.4-7.6c4.9-4.9,7.6-11.5,7.6-18.4V45.6c0-6.9-2.7-13.5-7.6-18.4
	C286.2,22.4,279.6,19.6,272.7,19.6z M186.1,88.9c6.9,0,13.5,2.7,18.4,7.6c4.9,4.9,7.6,11.5,7.6,18.4s-2.7,13.5-7.6,18.4
	c-4.9,4.9-11.5,7.6-18.4,7.6s-13.5-2.7-18.4-7.6c-4.9-4.9-7.6-11.5-7.6-18.4s2.7-13.5,7.6-18.4C172.6,91.6,179.2,88.9,186.1,88.9z
	 M254.7,222c-0.6,1.6-1.8,2.9-3.2,3.9c-1.4,1-3.1,1.5-4.8,1.5H73.6c-2.3,0-4.5-0.9-6.1-2.5c-1.6-1.6-2.5-3.8-2.5-6.1
	c0-2.3,0.9-4.5,2.5-6.1L128,152c1.6-1.6,3.8-2.6,6.1-2.6c2.3,0,4.5,0.9,6.1,2.6l37.1,37.2l19.8-19.9c1.6-1.6,3.8-2.6,6.1-2.6
	c2.3,0,4.5,0.9,6.1,2.6l43.3,43.3c1.6,1.6,2.5,3.8,2.5,6.1C255.4,219.9,255.1,221,254.7,222L254.7,222z"/>
</svg>
