<?xml version="1.0" encoding="utf-8"?>
<!-- Generator: Adobe Illustrator 26.5.0, SVG Export Plug-In . SVG Version: 6.00 Build 0)  -->
<svg version="1.1" id="Layer_1" xmlns="http://www.w3.org/2000/svg" xmlns:xlink="http://www.w3.org/1999/xlink" x="0px" y="0px"
	 viewBox="0 0 320.27 316.32" style="enable-background:new 0 0 320.27 316.32;" xml:space="preserve">
<g>
	<path d="M28.63,128.05c2.34-9.07,7.6-12.26,15.11-11.99c9.74,0.35,19.5,0.16,29.25,0.01c1.38-0.02,3.02-0.73,4.09-1.8
		c20.86-20.98,41.65-42.07,62.47-63.11c6.17-6.24,13.69-5.79,17.99,1.58c1.52,2.61,2.3,6.31,2.46,9.58
		c0.35,7.5,0.11,15.04,0.11,22.56c0,57.14,0,114.29,0,171.43c0,9.23-3.97,15.29-10.68,16.34c-3.73,0.58-6.83-1.17-9.64-4.02
		c-15.79-16.01-31.61-31.99-47.41-47.99c-5.14-5.2-10.22-10.47-15.45-15.54c-1.03-1-2.57-1.66-3.88-1.68
		c-9.58-0.14-19.17-0.43-28.74,0.04c-7.52,0.36-12.99-2.45-15.68-11.46C28.63,170.68,28.63,149.37,28.63,128.05z"/>
</g>
<path d="M227.69,184.56c-8.03,8.17-15.07,15.79-22.58,22.89c-10.09,9.54-26.33,4.66-29.61-8.76c-1.6-6.55,0.13-12.38,4.9-17.2
	c6.24-6.3,12.52-12.55,18.77-18.84c0.86-0.87,1.66-1.79,2.76-2.98c-7.09-7.1-14.02-14.07-20.99-21c-3.6-3.58-5.86-7.73-5.92-12.91
	c-0.09-7.78,3.43-13.45,10.32-16.85c6.59-3.26,14.34-2.03,19.78,3.18c6.48,6.22,12.76,12.67,19.09,19.05
	c0.96,0.97,1.74,2.12,3.46,4.24c2.53-3.03,4.48-5.63,6.7-7.95c4.49-4.68,9.13-9.23,13.74-13.81c8.18-8.12,19.19-8.56,26.6-1.08
	c7.42,7.49,6.9,18.36-1.32,26.65c-5.89,5.94-11.82,11.84-17.72,17.77c-0.86,0.87-1.68,1.79-2.76,2.94
	c7.17,7.17,14.22,14.2,21.25,21.25c4.64,4.65,6.72,10.2,5.38,16.72c-1.4,6.78-5.49,11.46-12.07,13.59
	c-6.73,2.18-12.89,0.72-17.98-4.2c-6.47-6.24-12.75-12.67-19.07-19.06C229.53,187.33,228.9,186.21,227.69,184.56z"/>
</svg>
