<?xml version="1.0" encoding="utf-8"?>
<!-- Generator: Adobe Illustrator 28.2.0, SVG Export Plug-In . SVG Version: 6.00 Build 0)  -->
<svg version="1.1" id="Layer_1" xmlns="http://www.w3.org/2000/svg" xmlns:xlink="http://www.w3.org/1999/xlink" x="0px" y="0px"
	 viewBox="0 0 320.3 316.3" style="enable-background:new 0 0 320.3 316.3;" xml:space="preserve">
<path d="M17.4,93.4c-1,9.8,6.2,18.5,16,19.5c0.6,0.1,1.2,0.1,1.8,0.1h13.4c0,1.4,0.1,2.8,0.2,4.1L65.7,261
	c2.6,22.5,21.7,39.5,44.4,39.4h100.1c22.6,0,41.7-16.9,44.3-39.4l16.9-143.8c0.2-1.4,0.3-2.8,0.3-4.2h13.4c9.9,0,17.9-7.9,17.9-17.8
	c0-0.6,0-1.2-0.1-1.8c-1.2-9.3-9.2-16.3-18.6-16.1h-57.5c-3-36.8-35.3-64.3-72.2-61.2C122,18.8,96.1,44.7,93.4,77.3H36
	C26.6,77.1,18.5,84.1,17.4,93.4z M160.2,50.6c15.5,0,28.7,11.4,30.9,26.8h-61.8C131.5,62,144.6,50.6,160.2,50.6z"/>
</svg>
