<?xml version="1.0" encoding="utf-8"?>
<!-- Generator: Adobe Illustrator 27.8.1, SVG Export Plug-In . SVG Version: 6.00 Build 0)  -->
<svg version="1.1" id="Layer_1" xmlns="http://www.w3.org/2000/svg" xmlns:xlink="http://www.w3.org/1999/xlink" x="0px" y="0px"
	 viewBox="0 0 320.3 316.3" style="enable-background:new 0 0 320.3 316.3;" xml:space="preserve">
<g>
	<g>
		<path d="M274.3,275.8c-5,4.7-11.6,7.3-18.4,7.4c-7.3,0-14.2-2.9-19.2-8.2l-77-80.2l-75.5,81.9c-5.2,5.5-12.5,8.5-20.1,8.5
			c-6.7-0.1-13.2-2.6-18.1-7.1c-10.3-10.3-10.7-26.9-1-37.7l77.6-84.2L44.3,74.3c-7.8-12.9-3.7-29.7,9.2-37.5
			c9.1-5.5,20.5-5.2,29.3,0.6l76.1,79.6l74.6-80.9c12.4-8.6,29.4-5.6,38,6.8c6.1,8.7,6.5,20.2,1.2,29.4l-76.8,83.2l79.3,82.7
			C285,248.9,284.6,265.5,274.3,275.8z"/>
	</g>
</g>
</svg>
