<?xml version="1.0" encoding="utf-8"?>
<!-- Generator: Adobe Illustrator 28.1.0, SVG Export Plug-In . SVG Version: 6.00 Build 0)  -->
<svg version="1.1" id="Layer_1" xmlns="http://www.w3.org/2000/svg" xmlns:xlink="http://www.w3.org/1999/xlink" x="0px" y="0px"
	 viewBox="0 0 320.3 316.3" style="enable-background:new 0 0 320.3 316.3;" xml:space="preserve">
<path d="M149.9,2.4c-2.7-2.7-6.4-4.2-10.2-4.2H14.5C10.6-1.8,7-0.3,4.2,2.4C1.5,5.1,0,8.8,0,12.7v125.2c0,3.8,1.5,7.5,4.2,10.2
	c2.7,2.7,6.4,4.2,10.2,4.2h125.2c3.8,0,7.5-1.5,10.2-4.2c2.7-2.7,4.2-6.4,4.2-10.2V12.7C154.2,8.8,152.7,5.1,149.9,2.4z M63,113
	c4.7,0,8.6,3.8,8.6,8.6s-3.8,8.6-8.6,8.6c-15.2,0-27.5-12.4-27.5-27.5v-19h-5.8c-4.7,0-8.6-3.8-8.6-8.6s3.8-8.6,8.6-8.6h5.8V47.8
	c0-15.2,12.4-27.5,27.5-27.5c4.7,0,8.6,3.8,8.6,8.6c0,4.7-3.8,8.6-8.6,8.6c-5.8,0-10.4,4.7-10.4,10.4v54.7
	C52.6,108.4,57.3,113,63,113z M124.4,83.6h-5.8v19c0,15.2-12.4,27.5-27.5,27.5c-4.7,0-8.6-3.8-8.6-8.6s3.8-8.6,8.6-8.6
	c5.8,0,10.4-4.7,10.4-10.4V47.8c0-5.8-4.7-10.4-10.4-10.4c-4.7,0-8.6-3.8-8.6-8.6c0-4.7,3.8-8.6,8.6-8.6c15.2,0,27.5,12.4,27.5,27.5
	v18.6h5.8c4.7,0,8.6,3.8,8.6,8.6C133,79.8,129.2,83.6,124.4,83.6z"/>
<path d="M316.1,166.4c-2.7-2.7-6.4-4.2-10.2-4.2H180.6c-3.8,0-7.5,1.5-10.2,4.2c-2.7,2.7-4.2,6.4-4.2,10.2v125.2
	c0,3.8,1.5,7.5,4.2,10.2c2.7,2.7,6.4,4.2,10.2,4.2h125.2c3.8,0,7.5-1.5,10.2-4.2c2.7-2.7,4.2-6.4,4.2-10.2V176.6
	C320.3,172.8,318.8,169.1,316.1,166.4z M198.8,203.4c-2.4-2.3-2.9-6-1-8.8c0.2-0.3,0.5-0.6,0.8-0.9c2.6-2.6,6.8-2.6,9.4,0l12.1,12.1
	c4.2,4.2,4.2,11,0,15.1L208,233.1c-0.3,0.3-0.7,0.6-1.1,0.9c-3.1,2-7.2,1.1-9.2-2c-1.7-2.7-1.3-6.3,1-8.5l10.2-10.2L198.8,203.4z
	 M283.2,286.7h-80c-3.7,0-6.6-3-6.6-6.6c0-3.7,3-6.6,6.6-6.6h80c3.7,0,6.6,3,6.6,6.6C289.9,283.7,286.9,286.7,283.2,286.7z
	 M283.2,260.1h-80c-3.7,0-6.6-3-6.6-6.6c0-3.7,3-6.6,6.6-6.6h80c3.7,0,6.6,3,6.6,6.6C289.9,257.1,286.9,260.1,283.2,260.1z
	 M283.2,233.4h-41.6c-3.7,0-6.6-3-6.6-6.6c0-3.7,3-6.6,6.6-6.6h41.6c3.7,0,6.6,3,6.6,6.6C289.9,230.4,286.9,233.4,283.2,233.4z
	 M283.2,206.8h-41.6c-3.7,0-6.6-3-6.6-6.6c0-3.7,3-6.6,6.6-6.6h41.6c3.7,0,6.6,3,6.6,6.6C289.9,203.8,286.9,206.8,283.2,206.8z"/>
<path d="M139.7,162.1H14.5c-3.8,0-7.5,1.5-10.2,4.2c-2.7,2.7-4.2,6.4-4.2,10.2v125.2c0,3.8,1.5,7.5,4.2,10.2
	c2.7,2.7,6.4,4.2,10.2,4.2h125.2c3.8,0,7.5-1.5,10.2-4.2c2.7-2.7,4.2-6.4,4.2-10.2V176.6c0-3.8-1.5-7.5-4.2-10.2
	C147.2,163.7,143.5,162.1,139.7,162.1z M115.1,244.2L55,280.3c-1.9,1.1-4.2,1.1-6.1,0.1c-1.9-1.1-3-3.1-3-5.2V203
	c0-2.2,1.2-4.2,3-5.2c1.9-1.1,4.2-1,6.1,0.1l60.1,36.1c1.8,1.1,2.9,3,2.9,5.2C118,241.2,116.9,243.1,115.1,244.2z"/>
<path d="M305.6-1.8H180.4c-3.8,0-7.5,1.5-10.2,4.2s-4.2,6.4-4.2,10.2v125.2c0,3.8,1.5,7.5,4.2,10.2c2.7,2.7,6.4,4.2,10.2,4.2h125.2
	c3.8,0,7.5-1.5,10.2-4.2c2.7-2.7,4.2-6.4,4.2-10.2V12.7c0-3.8-1.5-7.5-4.2-10.2C313.1-0.3,309.5-1.8,305.6-1.8z M257.4,36.7
	c3.8,0,7.5,1.5,10.2,4.2c2.7,2.7,4.2,6.4,4.2,10.2s-1.5,7.5-4.2,10.2c-2.7,2.7-6.4,4.2-10.2,4.2c-3.8,0-7.5-1.5-10.2-4.2
	c-2.7-2.7-4.2-6.4-4.2-10.2s1.5-7.5,4.2-10.2C249.9,38.2,253.6,36.7,257.4,36.7z M295.6,110.8c-0.3,0.9-1,1.6-1.8,2.2
	s-1.7,0.8-2.7,0.8h-96.3c-1.3,0-2.5-0.5-3.4-1.4c-0.9-0.9-1.4-2.1-1.4-3.4s0.5-2.5,1.4-3.4l33.7-33.8c0.9-0.9,2.1-1.4,3.4-1.4
	s2.5,0.5,3.4,1.4l20.6,20.7l11-11.1c0.9-0.9,2.1-1.4,3.4-1.4c1.3,0,2.5,0.5,3.4,1.4l24.1,24.1c0.9,0.9,1.4,2.1,1.4,3.4
	C296,109.6,295.8,110.2,295.6,110.8L295.6,110.8z"/>
</svg>
