<?xml version="1.0" encoding="utf-8"?>
<!-- Generator: Adobe Illustrator 27.8.1, SVG Export Plug-In . SVG Version: 6.00 Build 0)  -->
<svg version="1.1" id="Layer_1" xmlns="http://www.w3.org/2000/svg" xmlns:xlink="http://www.w3.org/1999/xlink" x="0px" y="0px"
	 viewBox="0 0 320.3 316.3" style="enable-background:new 0 0 320.3 316.3;" xml:space="preserve">
<g>
	<path d="M205.7,122.2c-16.3,0-29.7-13.3-29.7-29.7V15.1h-105c-16.4,0-29.7,13.4-29.7,29.7v226.7c0,16.4,13.4,29.7,29.7,29.7h178.4
		c16.4,0,29.7-13.4,29.7-29.7l0-149.3H205.7z M164.2,152.6h15.6v29.7h-15.6V152.6z M131.8,104.3h31.9V134h-31.9V104.3z M92.8,104.3
		h19V134h-19V104.3z M92.8,152.6h51.3v29.7H92.8V152.6z M107.5,230.6H92.8v-29.7h14.7V230.6z M188.5,230.6h-61v-29.7h61V230.6z
		 M227.5,230.6h-19.6v-29.7h19.6V230.6z M227.5,182.3h-27.8v-29.7h27.8V182.3z"/>
	<path d="M227.2,99.7H279l-80.7-84.6v55.7C198.3,86.8,211.3,99.7,227.2,99.7z"/>
</g>
</svg>
