<?xml version="1.0" encoding="utf-8"?>
<!-- Generator: Adobe Illustrator 28.2.0, SVG Export Plug-In . SVG Version: 6.00 Build 0)  -->
<svg version="1.1" id="Layer_1" xmlns="http://www.w3.org/2000/svg" xmlns:xlink="http://www.w3.org/1999/xlink" x="0px" y="0px"
	 viewBox="0 0 320.3 316.3" style="enable-background:new 0 0 320.3 316.3;" xml:space="preserve">
<path d="M288.4,229L188,55.1C182.2,45,171.8,39,160.1,39c-11.6,0-22.1,6-27.9,16.1L31.8,229c-5.8,10.1-5.8,22.1,0,32.2
	c5.8,10.1,16.2,16.1,27.9,16.1h200.9c11.6,0,22.1-6,27.9-16.1C294.3,251.1,294.3,239.1,288.4,229z M159.2,95.2
	c7.9-0.5,14.8,5.5,15.3,13.5c0,0.6,0,1.2,0,1.8l-6,94.6c0,0.1,0,0.1,0,0.2c-2.6-1-5.4-1.6-8.4-1.6s-5.8,0.6-8.4,1.6
	c0-0.1,0-0.1,0-0.2l-6-94.7C145.3,102.5,151.3,95.7,159.2,95.2z M160.1,243c-8.9,0-16-7.2-16-16c0-7.2,4.8-13.4,11.4-15.4l0,0
	c1.5-0.5,3.1-0.7,4.7-0.7c1.6,0,3.2,0.2,4.7,0.7c6.6,2,11.4,8.1,11.4,15.4C176.2,235.8,169,243,160.1,243z"/>
</svg>
