<?xml version="1.0" encoding="utf-8"?>
<!-- Generator: Adobe Illustrator 27.8.1, SVG Export Plug-In . SVG Version: 6.00 Build 0)  -->
<svg version="1.1" id="Layer_1" xmlns="http://www.w3.org/2000/svg" xmlns:xlink="http://www.w3.org/1999/xlink" x="0px" y="0px"
	 viewBox="0 0 320.3 316.3" style="enable-background:new 0 0 320.3 316.3;" xml:space="preserve">
<g>
	<path d="M98.7,89.4c0-14.4,11.7-26.2,26.2-26.2c11.9,0,21.5-9.6,21.5-21.5s-9.6-21.5-21.5-21.5c-38.1,0-69.2,31-69.2,69.2v46.8
		H41.2c-11.9,0-21.5,9.6-21.5,21.5s9.6,21.5,21.5,21.5h14.5V227c0,38.1,31,69.2,69.2,69.2c11.9,0,21.5-9.6,21.5-21.5
		s-9.6-21.5-21.5-21.5c-14.4,0-26.2-11.7-26.2-26.2V89.4z"/>
	<path d="M279.2,136.2h-14.5V89.4c0-38.1-31-69.2-69.2-69.2c-11.9,0-21.5,9.6-21.5,21.5s9.6,21.5,21.5,21.5
		c14.4,0,26.2,11.7,26.2,26.2V227c0,14.4-11.7,26.2-26.2,26.2c-11.9,0-21.5,9.6-21.5,21.5s9.6,21.5,21.5,21.5
		c38.1,0,69.2-31,69.2-69.2v-47.8h14.5c11.9,0,21.5-9.6,21.5-21.5S291.1,136.2,279.2,136.2z"/>
</g>
</svg>
