<?xml version="1.0" encoding="utf-8"?>
<!-- Generator: Adobe Illustrator 28.1.0, SVG Export Plug-In . SVG Version: 6.00 Build 0)  -->
<svg version="1.1" id="Layer_1" xmlns="http://www.w3.org/2000/svg" xmlns:xlink="http://www.w3.org/1999/xlink" x="0px" y="0px"
	 viewBox="0 0 320.3 316.3" style="enable-background:new 0 0 320.3 316.3;" xml:space="preserve">
<g>
	<path d="M65.2,51h-7.4c-12.9,0-23.5,10.6-23.5,23.5s10.3,23.7,23.5,23.7h7.4c12.9,0,23.5-10.6,23.5-23.5S78,51,65.2,51z"/>
	<path d="M65.2,134.8h-7.4c-12.9,0-23.5,10.6-23.5,23.5c0,12.9,10.6,23.5,23.5,23.5h7.4c12.9,0,23.5-10.6,23.5-23.5
		C88.6,145.4,78,134.8,65.2,134.8z"/>
	<path d="M65.2,218.4h-7.4c-12.9,0-23.5,10.6-23.5,23.5c0,12.9,10.6,23.5,23.5,23.5h7.4c12.9,0,23.5-10.6,23.5-23.5
		C88.6,229,78,218.4,65.2,218.4z"/>
	<path d="M143.8,98.2h118.7c12.9,0,23.5-10.6,23.5-23.5s-10.6-23.5-23.5-23.5H143.8c-12.9,0-23.5,10.6-23.5,23.5
		S131,98.2,143.8,98.2z"/>
	<path d="M262.6,134.8H143.8c-12.9,0-23.5,10.6-23.5,23.5c0,12.9,10.6,23.5,23.5,23.5h118.7c12.9,0,23.5-10.6,23.5-23.5
		C286,145.4,275.7,134.8,262.6,134.8z"/>
	<path d="M262.6,218.4H143.8c-12.9,0-23.5,10.6-23.5,23.5c0,12.9,10.6,23.5,23.5,23.5h118.7c12.9,0,23.5-10.6,23.5-23.5
		C286,229,275.7,218.4,262.6,218.4z"/>
</g>
</svg>
