<?xml version="1.0" encoding="utf-8"?>
<!-- Generator: Adobe Illustrator 28.1.0, SVG Export Plug-In . SVG Version: 6.00 Build 0)  -->
<svg version="1.1" id="Layer_1" xmlns="http://www.w3.org/2000/svg" xmlns:xlink="http://www.w3.org/1999/xlink" x="0px" y="0px"
	 viewBox="0 0 320.3 316.3" style="enable-background:new 0 0 320.3 316.3;" xml:space="preserve">
<g>
	<path d="M198.8,77.4H72.1c-9.1,0-16.5,7.4-16.5,16.5v177.7c0,9.1,7.4,16.5,16.5,16.5h126.7c9.1,0,16.5-7.4,16.5-16.5V93.9
		C215.3,84.8,207.9,77.4,198.8,77.4z M176.4,193.2h-29.8V221c0,0-0.3,10.3-11.3,10.3c-10.9,0-11-10.3-11-10.3v-27.9H94.5
		c0,0-11-0.3-11-10.6c0-10.2,11-10.3,11-10.3h29.8v-27.9c0,0,0.6-10.2,11.6-10.3c11-0.1,10.7,10.3,10.7,10.3v27.9h29.8
		c0,0,10.9,0.6,10.9,10.8C187.5,193.4,176.4,193.2,176.4,193.2z"/>
	<path d="M248,28.1H121.3c-9.1,0-16.5,7.4-16.5,16.5l0,0v23.8H199c14.1,0,25.5,11.4,25.5,25.5v144.9h23.8c9.1,0,16.5-7.4,16.5-16.5
		V44.7c0-9.1-7.4-16.5-16.5-16.5C248.1,28.1,248.1,28.1,248,28.1z"/>
</g>
</svg>
