<?xml version="1.0" encoding="utf-8"?>
<!-- Generator: Adobe Illustrator 27.9.0, SVG Export Plug-In . SVG Version: 6.00 Build 0)  -->
<svg version="1.1" id="Layer_1" xmlns="http://www.w3.org/2000/svg" xmlns:xlink="http://www.w3.org/1999/xlink" x="0px" y="0px"
	 viewBox="0 0 320.3 316.3" style="enable-background:new 0 0 320.3 316.3;" xml:space="preserve">
<path d="M256.9,104.1l-76.5-56.9c-12.3-9-28.6-9-40.9,0l-76.5,56.9c-8.6,6.4-13.7,16.6-13.7,27.3V245c0,18.6,15.2,33.8,34,33.8
	h153.2c18.8,0,34-15.2,34-33.8V131.4C270.7,120.7,265.5,110.5,256.9,104.1z M185.5,244.8c0,9.4-7.7,17-17,17h-17
	c-9.4,0-17-7.7-17-17v-25.5c0-9.4,7.7-17,17-17h17c9.4,0,17,7.7,17,17V244.8z"/>
</svg>
