<?xml version="1.0" encoding="utf-8"?>
<!-- Generator: Adobe Illustrator 27.9.0, SVG Export Plug-In . SVG Version: 6.00 Build 0)  -->
<svg version="1.1" id="Layer_1" xmlns="http://www.w3.org/2000/svg" xmlns:xlink="http://www.w3.org/1999/xlink" x="0px" y="0px"
	 viewBox="0 0 320.3 316.3" style="enable-background:new 0 0 320.3 316.3;" xml:space="preserve">
<path d="M160.1,32.4c-69.4,0-126.2,56.7-126.2,126.5c0,63.1,46.2,115.5,106.5,124.9v-88.3h-32.1v-36.6h32.1V131
	c0-31.7,18.8-49.1,47.7-49.1c13.8,0,28.1,2.4,28.1,2.4v31.2h-15.9c-15.7,0-20.6,9.7-20.6,19.7v23.7h35.1l-5.7,36.6h-29.4v88.3
	c29.7-4.7,56.8-19.9,76.4-42.8c19.5-22.9,30.2-52.1,30.2-82.2C286.4,89.1,229.6,32.4,160.1,32.4z"/>
</svg>
