<?xml version="1.0" encoding="utf-8"?>
<!-- Generator: Adobe Illustrator 28.1.0, SVG Export Plug-In . SVG Version: 6.00 Build 0)  -->
<svg version="1.1" id="Layer_1" xmlns="http://www.w3.org/2000/svg" xmlns:xlink="http://www.w3.org/1999/xlink" x="0px" y="0px"
	 viewBox="0 0 320.3 316.3" style="enable-background:new 0 0 320.3 316.3;" xml:space="preserve">
<g>
	<path d="M136,95.3c-5.6-3.1-10.7-6.9-15.4-11.3c-9.3-8.8-16.7-20.2-22-33.6l0,0c-2.8-7-12.7-7-15.4,0l0,0
		c-5.3,13.5-12.7,24.8-22,33.6c-4.6,4.4-9.8,8.2-15.3,11.3l0,0c-5.6,3.2-5.6,11.3,0,14.5l0,0c5.5,3.1,10.7,6.9,15.3,11.3
		c9.3,8.8,16.7,20.2,22,33.6l0,0c2.8,7,12.7,7,15.4,0l0,0c5.3-13.5,12.7-24.8,22-33.6c4.6-4.4,9.8-8.2,15.4-11.3l0,0
		C141.7,106.6,141.7,98.5,136,95.3L136,95.3z"/>
	<path d="M261.6,171.2c-5.7-3.2-10.9-7-15.6-11.5c-9.6-9.1-17.2-20.8-22.7-34.7l-7.6-19.4c-2.8-7.1-12.8-7.1-15.6,0l-7.6,19.4
		c-5.5,14-13.1,25.6-22.7,34.7c-4.7,4.5-10,8.3-15.6,11.5l-12.7,7.1c-5.7,3.2-5.7,11.4,0,14.6l12.7,7.1c5.6,3.2,10.9,7,15.6,11.5
		c9.6,9.1,17.2,20.8,22.7,34.7l7.6,19.4c2.8,7.1,12.8,7.1,15.6,0l7.6-19.4c5.5-14,13.1-25.6,22.7-34.7c4.7-4.5,10-8.3,15.6-11.5
		l12.7-7.1c5.7-3.2,5.7-11.4,0-14.6L261.6,171.2z"/>
</g>
</svg>
