<?xml version="1.0" encoding="utf-8"?>
<!-- Generator: Adobe Illustrator 28.0.0, SVG Export Plug-In . SVG Version: 6.00 Build 0)  -->
<svg version="1.1" id="Layer_1" xmlns="http://www.w3.org/2000/svg" xmlns:xlink="http://www.w3.org/1999/xlink" x="0px" y="0px"
	 viewBox="0 0 320.3 316.3" style="enable-background:new 0 0 320.3 316.3;" xml:space="preserve">
<g>
	<ellipse transform="matrix(0.9732 -0.2298 0.2298 0.9732 -54.7312 30.7292)" cx="104.6" cy="250.4" rx="28.8" ry="28.8"/>
	<path d="M252.8,81c-5.5-6.5-13.5-10.2-22-10.2H79.7c-5.9,0-11.7,1.8-16.5,5.2l-5.6-24.2c-3-13-14.7-22.3-28.1-22.3H16
		c-5.3,0-9.6,4.3-9.6,9.6s4.3,9.6,9.6,9.6h13.5c4.5,0,8.3,3.1,9.4,7.4l16.6,71.4l11.2,60.9C69.2,202,81.2,212,95.1,212H217
		c14.1,0,26.1-10.2,28.4-24.1l13.9-83.6C260.7,96,258.3,87.4,252.8,81z"/>
	<ellipse transform="matrix(0.7071 -0.7071 0.7071 0.7071 -115.4692 222.0252)" cx="210.3" cy="250.4" rx="28.8" ry="28.8"/>
</g>
</svg>
