<?xml version="1.0" encoding="utf-8"?>
<!-- Generator: Adobe Illustrator 28.1.0, SVG Export Plug-In . SVG Version: 6.00 Build 0)  -->
<svg version="1.1" id="Layer_1" xmlns="http://www.w3.org/2000/svg" xmlns:xlink="http://www.w3.org/1999/xlink" x="0px" y="0px"
	 viewBox="0 0 320.3 316.3" style="enable-background:new 0 0 320.3 316.3;" xml:space="preserve">
<path d="M273.7,219.4c0.2-0.4,0.3-0.8,0.5-1.2c0.1-0.4,0.2-0.9,0.2-1.3c0-0.3,0.1-0.6,0.2-0.8c0-0.1,0-0.2,0-0.2L280,91
	c0-0.2,0-0.4,0-0.6c0-0.3,0-0.7,0-1c0-0.3-0.1-0.5-0.1-0.8c-0.1-0.3-0.1-0.6-0.2-0.9c-0.1-0.3-0.2-0.5-0.3-0.8
	c-0.1-0.3-0.2-0.5-0.3-0.8c-0.1-0.3-0.3-0.5-0.4-0.8c-0.1-0.3-0.3-0.5-0.4-0.7c-0.2-0.3-0.4-0.5-0.5-0.7c-0.2-0.2-0.3-0.4-0.5-0.6
	c-0.2-0.2-0.4-0.4-0.7-0.6c-0.2-0.2-0.4-0.4-0.6-0.5c-0.3-0.2-0.5-0.4-0.8-0.5c-0.2-0.1-0.4-0.3-0.5-0.4l-110-57.1
	c-0.3-0.2-0.7-0.2-1-0.4c-0.4-0.1-0.8-0.3-1.2-0.4c-0.5-0.1-0.9-0.1-1.4-0.2c-0.4,0-0.8-0.1-1.2-0.1c-0.5,0-0.9,0.1-1.4,0.1
	c-0.4,0.1-0.8,0.1-1.2,0.2c-0.5,0.1-0.9,0.3-1.3,0.5c-0.3,0.1-0.6,0.2-0.9,0.4L45.7,82.3c-0.1,0-0.1,0.1-0.2,0.1
	c-0.1,0.1-0.2,0.1-0.4,0.2c-0.3,0.1-0.5,0.3-0.8,0.5c-0.2,0.2-0.4,0.4-0.6,0.5c-0.2,0.1-0.4,0.3-0.5,0.4l0,0c0,0-0.1,0.1-0.1,0.1
	c-0.2,0.2-0.4,0.4-0.6,0.6s-0.4,0.4-0.5,0.6c-0.1,0.2-0.2,0.4-0.4,0.5c0,0.1-0.1,0.1-0.1,0.1c0,0.1,0,0.1-0.1,0.2
	c-0.1,0.2-0.2,0.4-0.3,0.6c-0.1,0.3-0.2,0.5-0.3,0.8c-0.1,0.3-0.2,0.5-0.3,0.8c0,0,0,0.1,0,0.1v0c-0.1,0.2-0.1,0.4-0.1,0.7
	c0,0.3-0.1,0.5-0.1,0.8c0,0.3,0,0.6,0,0.9c0,0.1,0,0.3,0,0.4c0,0.1,0,0.2,0,0.3l5,124c0,0.3,0.1,0.6,0.2,0.9
	c0.1,0.5,0.1,0.9,0.3,1.4c0.1,0.4,0.3,0.8,0.4,1.2c0.2,0.4,0.3,0.8,0.6,1.2c0.2,0.4,0.5,0.7,0.7,1c0.3,0.4,0.5,0.7,0.9,1
	c0.3,0.3,0.6,0.6,1,0.8c0.3,0.2,0.5,0.4,0.7,0.6l104.1,67.5c0,0,0,0,0,0c0.8,0.5,1.6,0.8,2.4,1.1c0.2,0.1,0.4,0.1,0.6,0.2
	c0.8,0.2,1.7,0.4,2.6,0.4l0,0l0,0l0,0l0,0c0.9,0,1.7-0.1,2.5-0.4c0.2,0,0.4-0.1,0.6-0.2c0.8-0.3,1.7-0.6,2.4-1.1c0,0,0,0,0.1,0
	l104.6-67.5c0.3-0.2,0.5-0.4,0.8-0.6c0.3-0.3,0.7-0.5,1-0.8c0.3-0.3,0.6-0.7,0.8-1c0.3-0.4,0.5-0.7,0.8-1.1
	C273.3,220.2,273.5,219.8,273.7,219.4z M250.8,101.8L239,122.2l-23.3,39.7c-0.8,1.3-2.7,1.3-3.5,0l-16.3-28.3l-16.4-28.4
	c-0.8-1.3,0.2-3,1.7-3l20.7-0.3L250.8,101.8L250.8,101.8z M141.3,143.9l16.6-28.7c0.8-1.4,2.7-1.4,3.5,0l33.1,57.3
	c0.8,1.4-0.2,3-1.8,3h-66.2c-1.6,0-2.5-1.7-1.8-3L141.3,143.9z M137.9,102.3c1.6,0,2.5,1.7,1.7,3l-16.3,28.2l-16.6,28.7
	c-0.8,1.4-2.7,1.4-3.5,0l-33-57.2c-0.8-1.4,0.2-3.1,1.8-3L137.9,102.3z M128.6,198.9H191c1.5,0,2.5,1.7,1.8,3l-31.3,56.5
	c-0.8,1.4-2.7,1.4-3.5,0l0,0l-31.1-56.5C126.1,200.5,127.1,198.9,128.6,198.9z M88,183.6l-19.9,12.1c-1.3,0.8-3-0.1-3.1-1.7
	L63,142.7c-0.1-2.1,2.8-2.9,3.8-1.1l21.9,39.3C89.2,181.8,88.9,183,88,183.6z M220.5,202.3l21,12.1c1.3,0.8,1.4,2.6,0.1,3.5
	L197,246.6c-1.8,1.2-3.9-0.9-2.9-2.7l23.6-40.8C218.3,202.1,219.5,201.7,220.5,202.3z M232.5,185.3l-2.8-1.6c-1-0.6-1.3-1.8-0.7-2.8
	l28.1-48.7l0.4-0.7l-2.7,63.2c-0.1,1.5-1.7,2.4-3,1.7L232.5,185.3z M201.6,81.1h-29.5c-1.1,0-2-0.9-2-2V53.8c0-1.5,1.6-2.5,3-1.8
	L221.3,77c1.9,1,1.2,3.8-0.9,3.8L201.6,81.1z M149.4,81.1h-49.2c-2.1,0-2.8-2.8-1-3.8l47.2-25.1c1.4-0.7,3,0.3,3,1.8L149.4,81.1
	L149.4,81.1z M101.7,203.2l23.8,40.7c1.1,1.8-1.1,3.9-2.9,2.7l-44.4-28.8c-1.3-0.8-1.2-2.7,0.1-3.5l20.6-11.9
	C99.9,202,101.1,202.3,101.7,203.2z"/>
</svg>
