<?xml version="1.0" encoding="utf-8"?>
<!-- Generator: Adobe Illustrator 27.9.0, SVG Export Plug-In . SVG Version: 6.00 Build 0)  -->
<svg version="1.1" id="Layer_1" xmlns="http://www.w3.org/2000/svg" xmlns:xlink="http://www.w3.org/1999/xlink" x="0px" y="0px"
	 viewBox="0 0 320.3 316.3" style="enable-background:new 0 0 320.3 316.3;" xml:space="preserve">
<g>
	<path d="M130,47c-11.6-4.3-25.2-0.6-33,9c-7.9,9.7-9.2,23.7-2.6,34.5c6.5,10.7,19.3,16.2,31.6,13.7c13.7-2.8,23.6-15.3,23.7-29.2
		c0-0.2,0-0.3,0-0.5C149.3,62.3,141.5,51.3,130,47z"/>
	<path d="M130,130.1c-11.6-4.3-25.2-0.6-33,9c-7.9,9.7-9.2,23.7-2.6,34.5c6.5,10.7,19.3,16.2,31.6,13.7
		c13.7-2.8,23.6-15.3,23.7-29.2c0-0.2,0-0.3,0-0.5C149.3,145.4,141.5,134.5,130,130.1z"/>
	<path d="M130,213.3c-11.6-4.3-25.2-0.6-33,9c-7.9,9.7-9.2,23.7-2.6,34.5c6.5,10.7,19.3,16.2,31.6,13.7
		c13.7-2.8,23.6-15.3,23.7-29.2c0-0.2,0-0.3,0-0.5C149.3,228.5,141.5,217.6,130,213.3z"/>
	<path d="M206.5,104.2c13.7-2.8,23.6-15.3,23.7-29.2c0-0.2,0-0.3,0-0.5c-0.3-12.3-8.1-23.3-19.6-27.6c-11.6-4.3-25.2-0.6-33,9
		c-7.9,9.7-9.2,23.7-2.6,34.5C181.4,101.2,194.2,106.7,206.5,104.2z"/>
	<path d="M210.5,130.1c-11.6-4.3-25.2-0.6-33,9c-7.9,9.7-9.2,23.7-2.6,34.5c6.5,10.7,19.3,16.2,31.6,13.7
		c13.7-2.8,23.6-15.3,23.7-29.2c0-0.2,0-0.3,0-0.5C229.9,145.4,222.1,134.5,210.5,130.1z"/>
	<path d="M210.5,213.3c-11.6-4.3-25.2-0.6-33,9c-7.9,9.7-9.2,23.7-2.6,34.5c6.5,10.7,19.3,16.2,31.6,13.7
		c13.7-2.8,23.6-15.3,23.7-29.2c0-0.2,0-0.3,0-0.5C229.9,228.5,222.1,217.6,210.5,213.3z"/>
</g>
</svg>
